<?xml version="1.0" standalone="no"?>
<!DOCTYPE svg PUBLIC "-//W3C//DTD SVG 20010904//EN"
 "http://www.w3.org/TR/2001/REC-SVG-20010904/DTD/svg10.dtd">
<svg version="1.0" xmlns="http://www.w3.org/2000/svg"
 width="700.000000pt" height="700.000000pt" viewBox="0 0 700.000000 700.000000"
 preserveAspectRatio="xMidYMid meet">
<metadata>
Created by potrace 1.14, written by Peter Selinger 2001-2017
</metadata>
<g transform="translate(0.000000,700.000000) scale(0.100000,-0.100000)"
fill="#000000" stroke="none">
<path d="M3069 6996 c-2 -2 -47 -7 -99 -11 -52 -3 -97 -8 -100 -10 -3 -1 -27
-5 -55 -9 -27 -3 -59 -8 -70 -10 -32 -6 -98 -18 -125 -22 -100 -18 -425 -112
-495 -143 -11 -5 -60 -26 -110 -46 -641 -265 -1206 -758 -1560 -1360 -59 -101
-148 -276 -190 -375 -15 -36 -31 -74 -36 -85 -32 -73 -123 -358 -135 -424 -3
-12 -11 -51 -19 -85 -15 -66 -42 -224 -51 -302 -3 -27 -8 -60 -12 -74 -3 -14
-8 -929 -9 -2033 l-4 -2008 1998 4 c1099 2 2012 6 2028 9 17 4 57 9 90 13 78
8 114 14 205 31 41 8 86 17 100 20 14 2 36 7 50 10 14 3 32 7 40 9 75 16 345
103 405 130 17 8 54 23 83 34 132 52 369 179 522 281 153 102 148 98 275 201
479 390 841 917 1040 1514 46 138 76 251 101 385 2 8 6 31 10 50 10 54 18 106
28 185 4 28 10 66 13 85 4 19 8 936 10 2038 l4 2002 -1964 0 c-1081 0 -1966
-2 -1968 -4z m2562 -1376 c0 -8 1 -553 1 -1210 1 -1057 -3 -1335 -17 -1390 -2
-8 -6 -33 -9 -55 -4 -22 -11 -64 -17 -92 -6 -29 -11 -56 -11 -60 -2 -31 -98
-283 -138 -366 -54 -110 -52 -106 -124 -217 -272 -419 -741 -737 -1217 -824
-116 -21 -135 -24 -209 -31 -49 -5 -2097 -10 -2460 -6 l-65 1 1 1217 c1 669 4
1251 8 1293 58 722 536 1359 1221 1625 178 70 415 120 589 124 44 1 82 3 83 4
1 1 533 2 1182 2 1043 0 1181 -2 1182 -15z"/>
</g>
</svg>
