<svg viewBox="0 0 558 128" fill="none" xmlns="http://www.w3.org/2000/svg" class="h-full w-full">
    <g clip-path="url(#clip0_28_45)">
        <path
            d="M12.5 60C12.5 33.7665 33.7665 12.5 60 12.5H115.5V68C115.5 94.2335 94.2335 115.5 68 115.5H12.5V60Z"
            stroke="#EEF6E7" stroke-width="25" />
        <path
            d="M192.656 91.008C190.267 92.9707 187.323 94.5493 183.824 95.744C180.411 96.8533 176.955 97.408 173.456 97.408C167.483 97.408 162.235 96.256 157.712 93.952C153.189 91.5627 149.648 88.2773 147.088 84.096C144.613 79.8293 143.376 74.752 143.376 68.864C143.376 62.976 144.699 57.8987 147.344 53.632C150.075 49.3653 153.616 46.1227 157.968 43.904C162.405 41.6 167.099 40.448 172.048 40.448C176.571 40.448 180.581 41.088 184.08 42.368C187.579 43.5627 190.608 45.2267 193.168 47.36L186 56.704C184.635 55.5947 182.843 54.5707 180.624 53.632C178.491 52.608 176.059 52.096 173.328 52.096C170.427 52.096 167.781 52.8213 165.392 54.272C163.088 55.7227 161.211 57.728 159.76 60.288C158.395 62.7627 157.712 65.6213 157.712 68.864C157.712 71.936 158.437 74.752 159.888 77.312C161.339 79.872 163.344 81.92 165.904 83.456C168.464 84.9067 171.408 85.632 174.736 85.632C176.869 85.632 178.832 85.3333 180.624 84.736C182.501 84.0533 184.123 83.1573 185.488 82.048L192.656 91.008ZM205.436 68.352C205.436 62.8907 206.716 57.984 209.276 53.632C211.836 49.1947 215.42 45.7387 220.028 43.264C224.721 40.704 230.012 39.424 235.9 39.424C241.959 39.424 247.207 40.704 251.644 43.264C256.167 45.7387 259.665 49.1947 262.14 53.632C264.615 57.984 265.852 62.8907 265.852 68.352C265.852 73.8133 264.615 78.7627 262.14 83.2C259.665 87.552 256.167 91.008 251.644 93.568C247.207 96.128 241.916 97.408 235.772 97.408C229.969 97.408 224.764 96.256 220.156 93.952C215.548 91.5627 211.921 88.192 209.276 83.84C206.716 79.488 205.436 74.3253 205.436 68.352ZM219.9 68.48C219.9 71.6373 220.583 74.5387 221.948 77.184C223.313 79.744 225.191 81.792 227.58 83.328C229.969 84.864 232.615 85.632 235.516 85.632C238.673 85.632 241.404 84.864 243.708 83.328C246.097 81.792 247.932 79.744 249.212 77.184C250.577 74.5387 251.26 71.6373 251.26 68.48C251.26 65.2373 250.577 62.336 249.212 59.776C247.932 57.1307 246.097 55.04 243.708 53.504C241.404 51.968 238.673 51.2 235.516 51.2C232.529 51.2 229.841 52.0107 227.452 53.632C225.148 55.168 223.313 57.216 221.948 59.776C220.583 62.336 219.9 65.2373 219.9 68.48ZM310.484 123.008C306.047 123.008 302.249 122.496 299.092 121.472C295.935 120.448 293.119 119.083 290.644 117.376C288.255 115.755 285.993 114.048 283.86 112.256L292.308 102.4C294.783 104.704 297.385 106.624 300.116 108.16C302.932 109.696 306.303 110.464 310.228 110.464C313.727 110.464 316.756 109.867 319.316 108.672C321.961 107.477 324.009 105.813 325.46 103.68C326.911 101.547 327.679 98.9867 327.764 96V82.56L328.66 85.248C327.209 88.576 324.564 91.4347 320.724 93.824C316.884 96.2133 312.105 97.408 306.388 97.408C301.439 97.408 296.873 96.1707 292.692 93.696C288.511 91.136 285.183 87.68 282.708 83.328C280.233 78.976 278.996 74.0693 278.996 68.608C278.996 62.976 280.276 57.984 282.836 53.632C285.481 49.1947 288.937 45.7387 293.204 43.264C297.556 40.704 302.164 39.424 307.028 39.424C311.807 39.424 316.031 40.2773 319.7 41.984C323.455 43.6907 326.271 45.824 328.148 48.384L327.38 50.432L328.916 41.856H342.1V96.256C342.1 101.291 340.735 105.813 338.004 109.824C335.359 113.92 331.647 117.12 326.868 119.424C322.175 121.813 316.713 123.008 310.484 123.008ZM293.46 68.224C293.46 71.4667 294.185 74.4107 295.636 77.056C297.172 79.7013 299.22 81.792 301.78 83.328C304.425 84.864 307.369 85.632 310.612 85.632C313.428 85.632 315.945 85.1627 318.164 84.224C320.468 83.2853 322.431 81.9627 324.052 80.256C325.759 78.5493 326.996 76.544 327.764 74.24V62.464C326.996 60.16 325.759 58.1973 324.052 56.576C322.431 54.8693 320.468 53.5467 318.164 52.608C315.945 51.6693 313.428 51.2 310.612 51.2C307.369 51.2 304.425 51.9253 301.78 53.376C299.22 54.8267 297.172 56.832 295.636 59.392C294.185 61.952 293.46 64.896 293.46 68.224ZM377.339 41.856L378.619 53.504L378.107 51.968C379.984 48.2133 382.758 45.2267 386.427 43.008C390.182 40.704 394.619 39.552 399.739 39.552C404.859 39.552 409.083 41.0453 412.411 44.032C415.739 47.0187 417.446 50.944 417.531 55.808V96H403.195V60.928C403.11 58.1973 402.342 56.0213 400.891 54.4C399.44 52.6933 397.136 51.7973 393.979 51.712C391.078 51.712 388.475 52.608 386.171 54.4C383.867 56.1067 382.032 58.496 380.667 61.568C379.387 64.5547 378.747 68.0107 378.747 71.936V96H364.411V41.856H377.339ZM435.366 68.352C435.366 62.8907 436.646 57.984 439.206 53.632C441.766 49.1947 445.35 45.7387 449.958 43.264C454.651 40.704 459.942 39.424 465.83 39.424C471.889 39.424 477.137 40.704 481.574 43.264C486.097 45.7387 489.595 49.1947 492.07 53.632C494.545 57.984 495.782 62.8907 495.782 68.352C495.782 73.8133 494.545 78.7627 492.07 83.2C489.595 87.552 486.097 91.008 481.574 93.568C477.137 96.128 471.846 97.408 465.702 97.408C459.899 97.408 454.694 96.256 450.086 93.952C445.478 91.5627 441.851 88.192 439.206 83.84C436.646 79.488 435.366 74.3253 435.366 68.352ZM449.83 68.48C449.83 71.6373 450.513 74.5387 451.878 77.184C453.243 79.744 455.121 81.792 457.51 83.328C459.899 84.864 462.545 85.632 465.446 85.632C468.603 85.632 471.334 84.864 473.638 83.328C476.027 81.792 477.862 79.744 479.142 77.184C480.507 74.5387 481.19 71.6373 481.19 68.48C481.19 65.2373 480.507 62.336 479.142 59.776C477.862 57.1307 476.027 55.04 473.638 53.504C471.334 51.968 468.603 51.2 465.446 51.2C462.459 51.2 459.771 52.0107 457.382 53.632C455.078 55.168 453.243 57.216 451.878 59.776C450.513 62.336 449.83 65.2373 449.83 68.48ZM529.662 97.152C525.566 97.152 521.641 96.4267 517.886 94.976C514.217 93.5253 511.102 91.392 508.542 88.576L514.686 80.512C517.075 82.816 519.422 84.5227 521.726 85.632C524.115 86.656 526.377 87.168 528.51 87.168C530.131 87.168 531.582 86.9973 532.862 86.656C534.227 86.2293 535.294 85.5893 536.062 84.736C536.915 83.8827 537.342 82.7307 537.342 81.28C537.342 79.5733 536.745 78.2507 535.55 77.312C534.355 76.288 532.819 75.4773 530.942 74.88C529.065 74.1973 527.102 73.5573 525.054 72.96C520.361 71.5093 516.862 69.376 514.558 66.56C512.254 63.744 511.102 60.5013 511.102 56.832C511.102 54.016 511.827 51.328 513.278 48.768C514.729 46.1227 516.947 43.9467 519.934 42.24C522.921 40.5333 526.675 39.68 531.198 39.68C535.294 39.68 538.835 40.1493 541.822 41.088C544.894 41.9413 547.753 43.4347 550.398 45.568L544.894 54.144C543.358 52.6933 541.523 51.584 539.39 50.816C537.342 49.9627 535.465 49.4933 533.758 49.408C532.222 49.3227 530.857 49.536 529.662 50.048C528.467 50.4747 527.486 51.1147 526.718 51.968C526.035 52.8213 525.694 53.8027 525.694 54.912C525.609 56.6187 526.163 57.984 527.358 59.008C528.638 60.032 530.259 60.8427 532.222 61.44C534.185 62.0373 536.147 62.6773 538.11 63.36C540.755 64.128 543.102 65.1947 545.15 66.56C547.198 67.9253 548.777 69.5893 549.886 71.552C551.081 73.4293 551.678 75.776 551.678 78.592C551.678 81.8347 550.867 84.9067 549.246 87.808C547.625 90.624 545.193 92.8853 541.95 94.592C538.707 96.2987 534.611 97.152 529.662 97.152Z"
            fill="#EEF6E7" />
    </g>
    <defs>
        <clipPath id="clip0_28_45">
            <rect width="558" height="128" fill="white" />
        </clipPath>
    </defs>
</svg>